<?xml version="1.0" standalone="no"?>
<!DOCTYPE svg PUBLIC "-//W3C//DTD SVG 20010904//EN"
 "http://www.w3.org/TR/2001/REC-SVG-20010904/DTD/svg10.dtd">
<svg version="1.0" xmlns="http://www.w3.org/2000/svg"
 width="826.000000pt" height="826.000000pt" viewBox="0 0 826.000000 826.000000"
 preserveAspectRatio="xMidYMid meet">

<g transform="translate(0.000000,826.000000) scale(0.100000,-0.100000)"
fill="#000000" stroke="none">
<path d="M3975 6204 c-145 -10 -276 -28 -285 -39 -6 -7 -7 -20 -4 -30 6 -15
15 -16 58 -11 317 39 569 29 879 -36 113 -24 151 -28 160 -19 26 26 -8 45
-129 73 -198 45 -508 74 -679 62z"/>
<path d="M3880 6040 c-123 -13 -271 -39 -375 -65 -132 -34 -147 -41 -143 -68
4 -28 15 -27 140 6 210 56 334 71 583 71 176 0 256 -4 340 -18 206 -33 371
-79 551 -152 74 -29 89 -33 101 -21 25 25 3 43 -115 89 -184 73 -377 123 -572
148 -116 15 -406 21 -510 10z"/>
<path d="M3850 5879 c-197 -23 -431 -82 -602 -154 -100 -42 -119 -58 -96 -82
15 -14 24 -12 100 20 600 255 1330 215 1890 -103 99 -56 128 -62 128 -27 0 20
-17 33 -92 75 -263 145 -560 239 -860 271 -112 13 -359 12 -468 0z"/>
<path d="M3785 5710 c-226 -35 -415 -95 -620 -196 -151 -74 -189 -101 -180
-127 4 -9 12 -17 19 -17 6 0 85 37 176 83 332 167 593 224 975 214 173 -4 231
-10 333 -31 307 -65 617 -208 844 -389 40 -32 68 -31 68 3 0 14 -26 39 -82 81
-280 207 -627 344 -988 389 -133 16 -407 11 -545 -10z"/>
<path d="M3926 5568 c-312 -27 -644 -144 -901 -316 -124 -83 -170 -124 -162
-145 11 -28 36 -20 111 37 281 211 609 335 979 367 511 45 1056 -153 1430
-520 64 -62 80 -74 94 -65 32 20 25 37 -45 104 -327 314 -742 501 -1197 540
-135 11 -168 11 -309 -2z"/>
<path d="M3910 5409 c-416 -47 -797 -231 -1078 -522 -49 -51 -70 -80 -66 -91
11 -29 43 -17 91 36 67 71 213 192 308 254 431 280 990 350 1471 184 128 -44
334 -150 444 -228 112 -79 292 -255 374 -364 57 -78 89 -97 103 -63 9 25 -125
191 -253 314 -369 355 -894 536 -1394 480z"/>
<path d="M3925 5254 c-217 -24 -474 -110 -658 -220 -212 -128 -414 -326 -529
-517 -36 -60 -39 -70 -26 -83 22 -23 39 -9 97 81 217 335 583 578 998 662 125
25 442 25 568 0 305 -62 585 -209 800 -422 122 -121 212 -244 288 -395 73
-148 84 -159 110 -118 7 11 -5 44 -46 126 -223 447 -627 757 -1122 862 -98 21
-379 35 -480 24z"/>
<path d="M3887 5089 c-572 -84 -1033 -491 -1192 -1053 -16 -53 -16 -60 -1 -74
24 -24 38 -3 74 110 136 426 472 767 891 902 169 54 283 69 484 63 143 -4 189
-9 275 -32 258 -67 451 -175 638 -357 213 -207 336 -437 405 -758 24 -112 35
-135 62 -124 22 8 21 25 -3 132 -52 236 -127 416 -239 579 -223 326 -579 549
-971 608 -102 16 -328 18 -423 4z"/>
<path d="M3970 4939 c-356 -30 -692 -219 -911 -512 -135 -180 -211 -366 -244
-592 -25 -171 -17 -310 30 -515 13 -58 28 -150 32 -205 7 -91 10 -100 28 -100
18 0 20 8 23 90 1 54 -4 120 -13 165 -51 248 -57 293 -52 425 13 326 130 598
357 826 419 422 1062 485 1561 153 188 -125 358 -334 448 -550 53 -129 117
-413 141 -619 19 -168 18 -165 45 -165 23 0 25 4 25 48 0 127 -70 498 -125
668 -111 339 -349 611 -670 764 -204 97 -440 139 -675 119z"/>
<path d="M3920 4775 c-672 -106 -1096 -763 -918 -1425 29 -107 36 -349 14
-457 -22 -110 -21 -123 8 -123 22 0 26 7 42 73 9 39 19 130 22 200 5 136 -5
225 -40 357 -26 98 -35 312 -18 417 68 427 378 768 798 880 86 23 116 26 262
26 147 0 176 -3 265 -26 323 -87 595 -320 722 -619 90 -214 157 -624 166
-1008 2 -94 2 -95 27 -95 l25 0 -2 182 c-3 291 -59 656 -135 872 -179 512
-705 829 -1238 746z"/>
<path d="M3916 4615 c-377 -78 -652 -328 -763 -692 -24 -80 -26 -103 -27 -258
-1 -157 1 -179 29 -285 27 -106 29 -129 30 -290 0 -185 -10 -253 -59 -398 -26
-76 -24 -92 9 -92 21 0 27 9 49 78 77 244 85 487 25 724 -86 340 2 668 242
906 125 124 282 208 459 244 123 26 307 21 420 -12 175 -50 361 -170 466 -301
130 -163 185 -308 239 -624 38 -225 49 -384 40 -625 -4 -118 -8 -240 -8 -270
-2 -44 1 -55 15 -58 28 -5 36 28 49 189 25 329 -10 719 -93 1034 -48 183 -132
331 -257 456 -128 128 -285 218 -452 260 -109 27 -315 34 -413 14z"/>
<path d="M3925 4455 c-255 -56 -453 -210 -565 -438 -88 -180 -107 -369 -57
-582 31 -130 47 -252 47 -350 0 -158 -39 -360 -99 -509 -38 -95 -39 -116 -7
-116 21 0 29 12 60 91 110 275 132 581 61 879 -35 150 -40 236 -21 349 30 172
111 320 239 437 83 76 155 118 264 158 85 30 94 31 243 31 141 -1 162 -3 235
-28 119 -40 199 -91 301 -192 77 -76 98 -106 138 -185 142 -289 199 -907 125
-1364 -34 -204 -34 -205 -14 -213 29 -10 40 18 63 149 36 211 45 346 39 587
-9 362 -68 682 -159 868 -102 205 -310 368 -538 423 -100 23 -262 26 -355 5z"/>
<path d="M4005 4310 c-149 -20 -267 -80 -382 -195 -64 -65 -90 -100 -121 -166
-75 -156 -88 -305 -43 -486 36 -145 46 -227 45 -383 -1 -229 -40 -414 -129
-613 -45 -101 -47 -127 -14 -127 47 0 156 300 190 525 15 103 15 337 0 440 -7
44 -22 116 -33 160 -29 113 -34 233 -14 320 49 208 197 371 401 441 113 39
256 39 365 1 108 -37 166 -72 241 -146 106 -107 148 -194 193 -409 45 -211 59
-359 59 -592 0 -274 -28 -489 -95 -733 -18 -67 -19 -80 -7 -88 35 -22 50 9 89
178 98 430 99 853 3 1283 -31 139 -52 198 -101 279 -102 169 -282 285 -485
311 -80 10 -79 10 -162 0z"/>
<path d="M3976 4144 c-226 -55 -386 -257 -386 -490 0 -31 11 -103 24 -162 40
-174 49 -270 43 -467 -8 -255 -50 -436 -154 -656 -44 -94 -49 -129 -20 -129
22 0 42 29 85 125 96 217 141 410 149 650 6 191 -4 311 -42 477 -14 58 -25
136 -25 173 0 223 181 413 411 432 168 14 349 -88 423 -239 59 -121 113 -422
122 -683 11 -284 -23 -553 -103 -820 -58 -197 -59 -203 -38 -211 26 -10 41 13
75 121 86 271 123 515 124 815 0 220 -9 325 -45 510 -43 230 -76 312 -159 403
-67 73 -149 123 -246 147 -89 23 -155 24 -238 4z"/>
<path d="M3983 3982 c-73 -26 -129 -66 -166 -118 -69 -98 -83 -197 -46 -349
98 -413 50 -847 -136 -1238 -39 -83 -42 -112 -10 -112 43 0 171 316 214 531
58 283 52 586 -16 849 -32 128 -11 229 65 308 62 65 104 82 202 82 97 0 143
-19 204 -81 46 -47 69 -100 95 -214 77 -342 80 -722 10 -1062 -25 -124 -77
-297 -118 -396 -32 -76 -32 -102 1 -102 23 0 50 56 102 219 81 251 114 444
123 716 4 145 1 224 -11 335 -19 165 -58 358 -87 435 -60 161 -264 255 -426
197z"/>
<path d="M4003 3819 c-24 -11 -52 -36 -64 -56 -38 -61 -40 -96 -13 -222 67
-306 70 -579 9 -876 -23 -112 -94 -322 -149 -439 -35 -76 -43 -102 -35 -112
24 -29 41 -12 89 89 200 424 248 901 139 1369 -17 72 -19 94 -9 123 35 106
182 117 234 17 18 -35 51 -188 70 -330 20 -143 21 -430 2 -582 -27 -217 -87
-437 -171 -634 -35 -80 -37 -89 -22 -103 23 -24 40 -6 78 85 127 305 189 608
189 930 0 246 -45 561 -96 668 -40 84 -159 119 -251 73z"/>
<path d="M4071 3676 c-8 -10 -6 -34 8 -97 40 -171 54 -297 54 -494 0 -326 -56
-592 -185 -883 -46 -102 -49 -115 -35 -129 21 -21 33 -11 66 55 211 422 273
1013 155 1477 -21 81 -38 101 -63 71z"/>
</g>
</svg>
