<svg xmlns="http://www.w3.org/2000/svg" width="100%" height="100%" viewBox="0, 0, 400,400"><g id="svgg"><path id="path0" d="M115.185 22.471 C 67.024 27.302,30.751 63.213,25.573 111.189 C 25.036 116.172,25.036 277.902,25.573 282.885 C 30.584 329.313,65.035 364.897,111.001 371.121 C 118.407 372.124,280.226 372.276,287.978 371.287 C 332.363 365.626,366.357 332.838,373.791 288.519 L 374.630 283.519 374.630 197.037 L 374.630 110.556 373.807 105.666 C 366.244 60.694,330.537 26.865,286.139 22.610 C 282.420 22.253,118.681 22.120,115.185 22.471 M287.407 43.779 C 324.270 49.986,351.096 78.747,353.683 114.833 C 354.215 122.247,354.212 272.394,353.680 279.444 C 350.996 315.038,324.550 343.766,288.648 350.088 L 283.889 350.926 200.000 350.926 L 116.111 350.926 111.352 350.088 C 75.273 343.735,48.985 315.032,46.314 279.074 C 45.791 272.032,45.791 122.571,46.314 115.185 C 48.922 78.355,77.476 48.163,113.889 43.733 C 115.722 43.510,117.722 43.268,118.333 43.197 C 122.741 42.679,284.174 43.234,287.407 43.779 M190.185 88.134 C 142.399 92.510,102.436 128.228,92.994 175.000 C 91.260 183.592,90.167 198.218,90.896 203.080 L 91.156 204.815 107.430 204.815 L 123.704 204.815 123.705 199.722 C 123.707 186.143,125.491 176.445,129.820 166.481 C 151.705 116.114,216.777 104.184,254.816 143.565 C 274.448 163.889,281.110 193.295,272.176 220.185 C 259.123 259.472,216.181 281.695,177.674 269.091 C 176.089 268.573,174.712 268.148,174.615 268.148 C 174.517 268.148,174.481 276.104,174.533 285.827 L 174.630 303.507 178.889 304.327 C 259.577 319.872,328.128 244.150,304.602 165.464 C 289.889 116.253,241.353 83.449,190.185 88.134 " stroke="none" fill="#19343b" fill-rule="evenodd"></path><path id="path1" d="M0.000 200.000 L 0.000 400.000 200.000 400.000 L 400.000 400.000 400.000 200.000 L 400.000 0.000 200.000 0.000 L 0.000 0.000 0.000 200.000 M284.312 22.218 C 330.433 25.806,367.268 60.741,374.330 107.593 C 375.366 114.467,375.367 279.599,374.331 286.481 C 367.597 331.220,334.445 364.587,290.000 371.359 C 283.742 372.312,122.795 372.593,113.770 371.666 C 68.398 367.007,33.296 333.393,25.820 287.446 L 25.000 282.407 25.000 197.222 C 25.000 100.963,24.760 108.549,28.225 95.185 C 38.502 55.539,74.657 25.275,115.370 22.238 C 120.927 21.823,278.999 21.805,284.312 22.218 M113.704 43.932 C 78.430 48.675,50.732 76.789,46.874 111.764 C 46.157 118.270,45.988 273.754,46.691 280.954 C 50.250 317.410,79.202 346.591,115.556 350.363 C 120.332 350.858,279.668 350.858,284.444 350.363 C 320.346 346.638,348.940 318.323,353.151 282.326 C 353.981 275.228,353.981 118.846,353.151 111.748 C 348.994 76.211,321.501 48.509,285.814 43.898 C 279.512 43.084,119.778 43.116,113.704 43.932 M214.444 88.521 C 288.973 99.154,331.036 177.621,298.327 245.000 C 270.559 302.202,198.970 323.817,144.585 291.420 L 140.725 289.121 140.837 238.542 L 140.948 187.963 141.779 184.348 C 147.202 160.741,165.275 142.481,187.269 138.387 C 193.516 137.224,195.243 137.037,199.713 137.037 C 239.366 137.037,267.336 173.777,257.002 212.287 C 249.726 239.399,223.186 257.766,194.722 255.389 L 191.481 255.119 191.481 238.300 L 191.481 221.481 196.574 221.479 C 213.606 221.469,223.892 212.838,225.057 197.579 C 227.091 170.942,189.467 160.809,177.477 184.764 C 174.685 190.343,174.784 188.583,174.898 230.504 L 175.000 267.860 177.407 268.734 C 180.856 269.985,185.778 271.038,191.111 271.664 C 226.876 275.864,260.505 254.534,271.820 220.474 C 292.407 158.499,231.342 101.549,170.741 126.205 C 141.887 137.945,124.140 165.203,124.086 197.863 L 124.074 204.800 107.545 204.900 C 93.139 204.987,90.987 204.929,90.786 204.444 C 90.391 203.493,90.597 190.031,91.075 185.556 C 97.598 124.459,154.214 79.929,214.444 88.521 " stroke="none" fill="#fbfbfb" fill-rule="evenodd"></path><path id="path2" d="M191.323 137.807 C 166.109 141.475,146.468 160.486,141.609 185.926 C 140.985 189.197,140.930 192.947,140.830 239.170 L 140.723 288.896 143.046 290.389 C 150.250 295.018,165.211 301.287,173.426 303.120 L 174.444 303.347 174.448 285.655 C 174.450 275.924,174.448 251.444,174.444 231.254 C 174.436 187.674,174.329 188.827,179.042 181.897 C 193.016 161.353,225.185 171.374,225.185 196.270 C 225.185 211.619,214.367 221.481,197.533 221.481 L 191.481 221.481 191.481 238.131 L 191.481 254.781 192.685 254.969 C 219.651 259.172,247.867 241.106,256.256 214.267 C 269.371 172.311,234.709 131.496,191.323 137.807 " stroke="none" fill="#5d9595" fill-rule="evenodd"></path><path id="path3" d="M159.322 22.130 C 181.662 22.182,218.329 22.182,240.804 22.130 C 263.278 22.077,245.000 22.034,200.185 22.034 C 155.370 22.034,136.982 22.077,159.322 22.130 M53.696 51.019 L 50.556 54.259 53.796 51.119 C 56.806 48.203,57.206 47.778,56.936 47.778 C 56.881 47.778,55.423 49.236,53.696 51.019 M344.259 49.259 C 345.055 50.074,345.789 50.741,345.891 50.741 C 345.993 50.741,345.425 50.074,344.630 49.259 C 343.834 48.444,343.100 47.778,342.998 47.778 C 342.896 47.778,343.464 48.444,344.259 49.259 M347.778 52.778 C 348.469 53.491,349.118 54.074,349.219 54.074 C 349.321 54.074,348.839 53.491,348.148 52.778 C 347.457 52.065,346.808 51.481,346.707 51.481 C 346.605 51.481,347.087 52.065,347.778 52.778 M330.926 65.926 C 331.929 66.944,332.833 67.778,332.935 67.778 C 333.037 67.778,332.299 66.944,331.296 65.926 C 330.293 64.907,329.389 64.074,329.287 64.074 C 329.185 64.074,329.923 64.907,330.926 65.926 M68.686 66.019 L 67.222 67.593 68.796 66.129 C 69.662 65.323,70.370 64.615,70.370 64.554 C 70.370 64.274,70.048 64.555,68.686 66.019 M197.700 87.682 C 198.981 87.755,200.981 87.754,202.144 87.681 C 203.307 87.607,202.259 87.548,199.815 87.549 C 197.370 87.550,196.419 87.609,197.700 87.682 M374.921 116.481 C 374.924 117.500,374.995 117.873,375.081 117.310 C 375.166 116.747,375.163 115.913,375.076 115.458 C 374.988 115.002,374.918 115.463,374.921 116.481 M24.939 117.778 C 24.939 119.306,25.005 119.931,25.085 119.167 C 25.165 118.403,25.165 117.153,25.085 116.389 C 25.005 115.625,24.939 116.250,24.939 117.778 M198.788 120.267 C 199.446 120.349,200.612 120.350,201.381 120.270 C 202.149 120.190,201.611 120.123,200.185 120.122 C 198.759 120.120,198.131 120.185,198.788 120.267 M253.519 142.593 C 254.934 144.019,256.175 145.185,256.276 145.185 C 256.378 145.185,255.304 144.019,253.889 142.593 C 252.474 141.167,251.233 140.000,251.131 140.000 C 251.029 140.000,252.104 141.167,253.519 142.593 M242.593 155.301 C 242.593 155.365,243.134 155.906,243.796 156.505 L 245.000 157.593 243.912 156.389 C 242.898 155.267,242.593 155.015,242.593 155.301 M197.685 171.002 C 198.144 171.090,198.894 171.090,199.352 171.002 C 199.810 170.914,199.435 170.842,198.519 170.842 C 197.602 170.842,197.227 170.914,197.685 171.002 M201.023 171.003 C 201.484 171.091,202.150 171.088,202.504 170.995 C 202.858 170.903,202.481 170.830,201.667 170.834 C 200.852 170.838,200.562 170.914,201.023 171.003 M181.649 178.611 L 180.185 180.185 181.759 178.721 C 183.223 177.360,183.504 177.037,183.223 177.037 C 183.163 177.037,182.454 177.745,181.649 178.611 M216.667 177.153 C 216.667 177.217,217.208 177.758,217.870 178.357 L 219.074 179.444 217.986 178.241 C 216.972 177.119,216.667 176.867,216.667 177.153 M275.649 189.444 C 275.653 190.259,275.729 190.549,275.818 190.088 C 275.906 189.628,275.903 188.961,275.810 188.607 C 275.717 188.253,275.645 188.630,275.649 189.444 M309.401 196.852 C 309.401 199.296,309.461 200.248,309.534 198.967 C 309.606 197.686,309.606 195.686,309.533 194.523 C 309.459 193.359,309.400 194.407,309.401 196.852 M90.510 197.407 C 90.510 199.750,90.571 200.708,90.644 199.537 C 90.718 198.366,90.718 196.449,90.644 195.278 C 90.571 194.106,90.510 195.065,90.510 197.407 M174.532 230.626 C 174.484 251.036,174.569 267.811,174.722 267.906 C 174.974 268.061,174.971 241.861,174.717 206.852 C 174.664 199.519,174.581 210.217,174.532 230.626 M123.849 200.000 C 123.849 202.750,123.907 203.875,123.978 202.500 C 124.050 201.125,124.050 198.875,123.978 197.500 C 123.907 196.125,123.849 197.250,123.849 200.000 M275.641 201.852 C 275.641 202.565,275.718 202.856,275.811 202.500 C 275.904 202.144,275.904 201.560,275.811 201.204 C 275.718 200.847,275.641 201.139,275.641 201.852 M242.573 237.315 L 241.296 238.704 242.685 237.427 C 243.978 236.239,244.244 235.926,243.962 235.926 C 243.900 235.926,243.275 236.551,242.573 237.315 M253.333 250.185 C 252.434 251.102,251.781 251.852,251.883 251.852 C 251.985 251.852,252.804 251.102,253.704 250.185 C 254.603 249.269,255.256 248.519,255.154 248.519 C 255.052 248.519,254.233 249.269,253.333 250.185 M195.093 255.447 C 195.551 255.535,196.301 255.535,196.759 255.447 C 197.218 255.358,196.843 255.286,195.926 255.286 C 195.009 255.286,194.634 255.358,195.093 255.447 M203.241 255.447 C 203.699 255.535,204.449 255.535,204.907 255.447 C 205.366 255.358,204.991 255.286,204.074 255.286 C 203.157 255.286,202.782 255.358,203.241 255.447 M199.357 272.488 C 199.920 272.573,200.753 272.571,201.209 272.483 C 201.664 272.395,201.204 272.325,200.185 272.328 C 199.167 272.331,198.794 272.403,199.357 272.488 M24.939 276.296 C 24.939 277.824,25.005 278.449,25.085 277.685 C 25.165 276.921,25.165 275.671,25.085 274.907 C 25.005 274.144,24.939 274.769,24.939 276.296 M374.921 277.593 C 374.924 278.611,374.995 278.984,375.081 278.421 C 375.166 277.858,375.163 277.025,375.076 276.569 C 374.988 276.113,374.918 276.574,374.921 277.593 M196.581 306.565 C 197.246 306.647,198.246 306.645,198.803 306.561 C 199.359 306.476,198.815 306.409,197.593 306.411 C 196.370 306.413,195.915 306.482,196.581 306.565 M201.204 306.562 C 201.764 306.646,202.681 306.646,203.241 306.562 C 203.801 306.477,203.343 306.407,202.222 306.407 C 201.102 306.407,200.644 306.477,201.204 306.562 M331.100 328.056 L 328.704 330.556 331.204 328.159 C 332.579 326.841,333.704 325.716,333.704 325.659 C 333.704 325.386,333.327 325.733,331.100 328.056 M68.704 328.148 C 69.707 329.167,70.611 330.000,70.713 330.000 C 70.815 330.000,70.077 329.167,69.074 328.148 C 68.071 327.130,67.167 326.296,67.065 326.296 C 66.963 326.296,67.701 327.130,68.704 328.148 M50.370 339.746 C 50.370 339.809,50.912 340.351,51.574 340.949 L 52.778 342.037 51.690 340.833 C 50.676 339.711,50.370 339.459,50.370 339.746 M55.741 345.185 C 56.536 346.000,57.271 346.667,57.373 346.667 C 57.474 346.667,56.907 346.000,56.111 345.185 C 55.315 344.370,54.581 343.704,54.479 343.704 C 54.377 343.704,54.945 344.370,55.741 345.185 M343.125 346.019 L 342.037 347.222 343.241 346.134 C 344.363 345.120,344.615 344.815,344.329 344.815 C 344.265 344.815,343.723 345.356,343.125 346.019 M117.870 372.107 C 118.227 372.200,118.810 372.200,119.167 372.107 C 119.523 372.014,119.231 371.938,118.519 371.938 C 117.806 371.938,117.514 372.014,117.870 372.107 " stroke="none" fill="#9ba5a6" fill-rule="evenodd"></path><path id="path4" d="M159.537 43.241 C 181.792 43.293,218.208 43.293,240.463 43.241 C 262.718 43.188,244.509 43.145,200.000 43.145 C 155.491 43.145,137.282 43.188,159.537 43.241 M206.759 88.033 C 207.116 88.126,207.699 88.126,208.056 88.033 C 208.412 87.940,208.120 87.864,207.407 87.864 C 206.694 87.864,206.403 87.940,206.759 88.033 M353.886 197.222 C 353.886 240.815,353.929 258.593,353.981 236.730 C 354.034 214.866,354.034 179.199,353.981 157.470 C 353.929 135.741,353.886 153.630,353.886 197.222 M374.997 197.037 C 374.997 240.528,375.040 258.319,375.093 236.574 C 375.145 214.829,375.145 179.245,375.093 157.500 C 375.040 135.755,374.997 153.546,374.997 197.037 M46.108 197.222 C 46.108 240.611,46.151 258.306,46.204 236.544 C 46.256 214.783,46.256 179.283,46.204 157.656 C 46.151 136.028,46.108 153.833,46.108 197.222 M196.019 120.255 C 196.375 120.348,196.958 120.348,197.315 120.255 C 197.671 120.162,197.380 120.086,196.667 120.086 C 195.954 120.086,195.662 120.162,196.019 120.255 M24.997 197.037 C 24.997 239.306,25.040 256.597,25.093 235.463 C 25.145 214.329,25.145 179.745,25.093 158.611 C 25.040 137.477,24.997 154.769,24.997 197.037 M123.797 193.889 C 123.801 194.704,123.877 194.993,123.966 194.533 C 124.054 194.072,124.051 193.405,123.958 193.051 C 123.865 192.697,123.793 193.074,123.797 193.889 M279.057 272.315 L 277.593 273.889 279.167 272.425 C 280.032 271.620,280.741 270.911,280.741 270.851 C 280.741 270.571,280.418 270.851,279.057 272.315 M196.759 272.478 C 197.116 272.571,197.699 272.571,198.056 272.478 C 198.412 272.384,198.120 272.308,197.407 272.308 C 196.694 272.308,196.403 272.384,196.759 272.478 M202.315 272.478 C 202.671 272.571,203.255 272.571,203.611 272.478 C 203.968 272.384,203.676 272.308,202.963 272.308 C 202.250 272.308,201.958 272.384,202.315 272.478 M274.795 276.574 L 273.519 277.963 274.907 276.687 C 276.200 275.499,276.467 275.185,276.184 275.185 C 276.122 275.185,275.497 275.810,274.795 276.574 M345.926 343.148 C 345.026 344.065,344.374 344.815,344.475 344.815 C 344.577 344.815,345.397 344.065,346.296 343.148 C 347.196 342.231,347.849 341.481,347.747 341.481 C 347.645 341.481,346.826 342.231,345.926 343.148 M160.307 351.019 C 182.375 351.071,218.375 351.071,240.307 351.018 C 262.240 350.966,244.185 350.923,200.185 350.923 C 156.185 350.923,138.240 350.966,160.307 351.019 M159.937 372.130 C 182.208 372.182,218.541 372.182,240.678 372.130 C 262.814 372.077,244.593 372.034,200.185 372.034 C 155.778 372.034,137.666 372.077,159.937 372.130 " stroke="none" fill="#848c8c" fill-rule="evenodd"></path></g></svg>