<svg xmlns="http://www.w3.org/2000/svg" width="100%" height="100%" viewBox="0, 0, 400,400"><g id="svgg"><path id="path0" d="M198.200 112.734 C 176.184 113.760,158.951 129.163,155.164 151.200 L 154.700 153.900 154.700 191.392 L 154.700 228.885 156.239 229.837 C 163.174 234.128,172.572 238.091,180.050 239.876 L 180.600 240.008 180.602 198.954 C 180.603 173.496,180.678 157.251,180.799 156.192 C 183.012 136.878,208.530 132.200,217.174 149.524 C 221.739 158.672,217.949 170.486,209.000 175.001 C 205.587 176.723,203.110 177.200,197.578 177.200 L 193.400 177.200 193.400 190.082 L 193.400 202.964 195.150 203.132 C 218.405 205.364,240.003 189.662,244.191 167.479 C 244.418 166.281,244.696 164.840,244.810 164.278 C 245.915 158.811,245.146 150.586,242.871 143.533 C 236.841 124.840,217.949 111.814,198.200 112.734 " stroke="none" fill="#2c7474" fill-rule="evenodd"></path><path id="path1" d="M134.900 25.223 C 99.370 28.553,72.180 54.859,66.848 91.064 C 66.435 93.862,66.199 218.366,66.597 223.100 C 69.783 260.999,100.091 290.276,138.126 292.194 C 143.503 292.465,256.497 292.465,261.874 292.194 C 299.910 290.276,330.217 261.001,333.403 223.100 C 333.801 218.366,333.565 93.862,333.152 91.064 C 327.793 54.675,300.548 28.461,264.700 25.200 C 261.983 24.953,137.546 24.975,134.900 25.223 M265.392 41.656 C 293.111 45.702,312.801 65.392,316.940 93.200 C 317.355 95.989,317.607 214.523,317.210 220.368 C 315.194 250.071,292.437 273.295,262.900 275.793 C 259.603 276.072,140.397 276.072,137.100 275.793 C 108.874 273.406,87.264 252.666,83.047 223.918 C 82.639 221.138,82.404 102.932,82.794 97.011 C 84.801 66.583,108.498 43.023,138.800 41.331 C 143.880 41.047,263.322 41.354,265.392 41.656 M194.189 75.215 C 154.680 77.897,122.048 108.613,117.111 147.767 C 116.438 153.107,116.175 163.551,116.693 164.388 C 116.783 164.534,120.763 164.600,129.412 164.600 L 142.000 164.600 142.000 160.029 C 142.000 143.969,145.895 132.657,155.405 121.100 C 183.843 86.540,239.190 96.275,254.507 138.531 C 258.148 148.575,258.881 160.547,256.483 170.800 C 251.148 193.609,233.112 210.840,210.009 215.202 C 201.441 216.819,189.322 215.881,181.800 213.019 C 181.195 212.789,180.678 212.600,180.650 212.600 C 180.346 212.599,180.645 239.986,180.950 240.074 C 187.394 241.937,200.601 242.701,209.200 241.708 C 258.133 236.060,291.596 190.116,281.893 141.900 C 273.665 101.009,236.007 72.376,194.189 75.215 M46.638 314.205 C 42.850 315.198,40.047 317.981,38.879 321.913 C 38.444 323.376,38.198 350.002,38.588 353.351 C 39.338 359.780,43.644 363.507,50.300 363.485 C 55.366 363.468,58.976 361.457,60.878 357.591 C 62.201 354.901,62.224 354.542,62.158 337.763 L 62.098 322.900 61.554 321.300 C 59.561 315.442,53.295 312.461,46.638 314.205 M222.928 314.117 C 218.548 315.177,215.463 318.518,214.681 323.046 C 214.219 325.727,214.368 353.794,214.854 355.391 C 218.120 366.133,234.005 366.511,237.539 355.931 L 238.084 354.300 238.157 345.250 L 238.229 336.200 232.214 336.200 L 226.200 336.200 226.200 339.800 L 226.200 343.400 228.412 343.400 L 230.625 343.400 230.562 348.466 L 230.500 353.533 229.900 354.501 C 228.288 357.102,224.311 357.101,222.700 354.500 L 222.100 353.532 222.045 339.033 C 221.983 322.738,221.943 323.240,223.398 321.926 C 225.049 320.434,227.549 320.432,229.198 321.922 C 230.322 322.937,230.600 323.952,230.600 327.036 L 230.600 329.600 234.428 329.600 L 238.256 329.600 238.144 326.350 C 237.975 321.433,237.129 319.102,234.682 316.813 C 231.897 314.207,227.100 313.107,222.928 314.117 M10.000 338.600 L 10.000 362.800 13.700 362.800 L 17.400 362.800 17.400 353.130 L 17.400 343.460 20.550 343.341 C 29.911 342.990,32.993 339.389,32.993 328.800 C 32.993 322.209,32.420 320.185,29.818 317.582 C 27.046 314.810,25.314 314.400,16.382 314.400 L 10.000 314.400 10.000 338.600 M83.200 338.597 L 83.200 362.800 86.799 362.800 L 90.398 362.800 90.449 346.815 L 90.500 330.831 93.798 346.821 L 97.096 362.811 99.785 362.755 L 102.474 362.700 105.687 347.120 L 108.900 331.540 108.951 347.170 L 109.002 362.800 112.801 362.800 L 116.600 362.800 116.600 338.600 L 116.600 314.400 111.243 314.400 L 105.886 314.400 103.008 329.050 C 101.425 337.108,100.075 343.914,100.007 344.175 C 99.932 344.468,98.699 338.890,96.782 329.575 L 93.680 314.500 88.440 314.447 L 83.200 314.393 83.200 338.597 M129.906 314.850 C 129.791 315.359,122.000 362.494,122.000 362.680 C 122.000 362.746,123.691 362.800,125.757 362.800 L 129.514 362.800 130.291 357.500 L 131.067 352.200 134.901 352.200 L 138.735 352.200 139.158 355.050 C 139.390 356.618,139.740 359.003,139.935 360.350 L 140.289 362.800 144.160 362.800 L 148.032 362.800 147.915 362.250 C 147.790 361.661,140.000 314.663,140.000 314.498 C 140.000 314.444,137.752 314.400,135.004 314.400 L 130.008 314.400 129.906 314.850 M153.600 338.600 L 153.600 362.800 157.199 362.800 L 160.797 362.800 160.849 347.755 L 160.900 332.711 165.598 347.755 L 170.296 362.800 174.248 362.800 L 178.200 362.800 178.200 338.600 L 178.200 314.400 174.501 314.400 L 170.802 314.400 170.751 329.943 L 170.700 345.486 166.421 330.593 C 164.068 322.402,162.061 315.408,161.962 315.050 L 161.781 314.400 157.691 314.400 L 153.600 314.400 153.600 338.600 M191.706 314.850 C 191.591 315.359,183.800 362.494,183.800 362.680 C 183.800 362.746,185.491 362.800,187.557 362.800 L 191.314 362.800 192.091 357.500 L 192.867 352.200 196.701 352.200 L 200.535 352.200 200.958 355.050 C 201.190 356.618,201.540 359.003,201.735 360.350 L 202.089 362.800 205.960 362.800 L 209.832 362.800 209.715 362.250 C 209.590 361.661,201.800 314.663,201.800 314.498 C 201.800 314.444,199.552 314.400,196.804 314.400 L 191.808 314.400 191.706 314.850 M245.200 338.600 L 245.200 362.800 255.600 362.800 L 266.000 362.800 266.000 359.300 L 266.000 355.800 259.300 355.800 L 252.600 355.800 252.600 348.800 L 252.600 341.800 258.000 341.800 L 263.400 341.800 263.400 338.300 L 263.400 334.800 258.000 334.800 L 252.600 334.800 252.600 328.100 L 252.600 321.400 259.300 321.400 L 266.000 321.400 266.000 317.900 L 266.000 314.400 255.600 314.400 L 245.200 314.400 245.200 338.600 M272.000 338.597 L 272.000 362.800 275.599 362.800 L 279.198 362.800 279.249 346.815 L 279.300 330.831 282.598 346.821 L 285.896 362.811 288.585 362.755 L 291.274 362.700 294.487 347.120 L 297.700 331.540 297.751 347.170 L 297.802 362.800 301.601 362.800 L 305.400 362.800 305.400 338.600 L 305.400 314.400 300.043 314.400 L 294.686 314.400 291.808 329.050 C 290.225 337.108,288.875 343.914,288.807 344.175 C 288.732 344.468,287.499 338.890,285.582 329.575 L 282.480 314.500 277.240 314.447 L 272.000 314.393 272.000 338.597 M313.400 338.600 L 313.400 362.800 323.800 362.800 L 334.200 362.800 334.200 359.300 L 334.200 355.800 327.500 355.800 L 320.800 355.800 320.800 348.800 L 320.800 341.800 326.200 341.800 L 331.600 341.800 331.600 338.300 L 331.600 334.800 326.200 334.800 L 320.800 334.800 320.800 328.100 L 320.800 321.400 327.500 321.400 L 334.200 321.400 334.200 317.900 L 334.200 314.400 323.800 314.400 L 313.400 314.400 313.400 338.600 M340.200 338.600 L 340.200 362.800 343.799 362.800 L 347.397 362.800 347.449 347.755 L 347.500 332.711 352.198 347.755 L 356.896 362.800 360.848 362.800 L 364.800 362.800 364.800 338.600 L 364.800 314.400 361.101 314.400 L 357.402 314.400 357.351 329.943 L 357.300 345.486 353.021 330.593 C 350.668 322.402,348.661 315.408,348.562 315.050 L 348.381 314.400 344.291 314.400 L 340.200 314.400 340.200 338.600 M370.400 317.900 L 370.400 321.400 374.400 321.400 L 378.400 321.400 378.400 342.100 L 378.400 362.800 382.100 362.800 L 385.800 362.800 385.800 342.100 L 385.800 321.400 389.800 321.400 L 393.800 321.400 393.800 317.900 L 393.800 314.400 382.100 314.400 L 370.400 314.400 370.400 317.900 M52.652 321.461 C 53.161 321.760,53.705 322.311,54.002 322.830 L 54.500 323.700 54.556 338.300 C 54.618 354.240,54.646 353.801,53.475 355.194 C 51.775 357.214,47.760 356.672,46.574 354.263 L 46.100 353.300 46.037 339.200 C 45.993 329.313,46.041 324.790,46.199 324.063 C 46.801 321.276,50.080 319.954,52.652 321.461 M23.306 322.003 C 25.137 322.889,25.290 323.372,25.361 328.477 C 25.457 335.362,24.840 336.196,19.650 336.199 L 17.400 336.200 17.400 328.771 L 17.400 321.342 19.893 321.449 C 21.913 321.537,22.559 321.641,23.306 322.003 M136.659 337.650 L 137.735 345.000 134.901 345.000 L 132.067 345.000 133.031 338.450 C 133.560 334.848,134.196 330.466,134.444 328.714 L 134.894 325.528 135.238 327.914 C 135.427 329.226,136.066 333.608,136.659 337.650 M198.459 337.650 L 199.535 345.000 196.701 345.000 L 193.867 345.000 194.831 338.450 C 195.360 334.848,195.996 330.466,196.244 328.714 L 196.694 325.528 197.038 327.914 C 197.227 329.226,197.866 333.608,198.459 337.650 " stroke="none" fill="#14242c" fill-rule="evenodd"></path><path id="path2" d="" stroke="none" fill="#206478" fill-rule="evenodd"></path><path id="path3" d="" stroke="none" fill="#203854" fill-rule="evenodd"></path><path id="path4" d="" stroke="none" fill="#203c2c" fill-rule="evenodd"></path></g></svg>